<svg xmlns="http://www.w3.org/2000/svg" xmlns:xlink="http://www.w3.org/1999/xlink" viewBox="0,0,255.99057,255.99057" width="32" height="32"><g fill="#d761a5" fill-rule="nonzero" stroke="none" stroke-width="1" stroke-linecap="butt" stroke-linejoin="miter" stroke-miterlimit="10" stroke-dasharray="" stroke-dashoffset="0" font-family="none" font-weight="none" font-size="none" text-anchor="none" style="mix-blend-mode: normal"><g transform="scale(16,16)"><path d="M8,1.37305c-1.269,-0.089 -2.59423,0.61286 -3.24023,1.75586c-0.01781,0.02955 -0.03005,0.06175 -0.04687,0.0918c-0.94526,0.06949 -1.89966,0.60266 -2.45117,1.46484c-0.712,1.056 -0.76856,2.55259 -0.10156,3.68359c0.01711,0.03097 0.04052,0.05756 0.05859,0.08789c-0.41283,0.85347 -0.42759,1.94646 0.04297,2.85547c0.558,1.144 1.82567,1.94169 3.13867,1.92969c0.03468,0.00066 0.06891,-0.0054 0.10352,-0.00586c0.53283,0.78371 1.47234,1.34407 2.49414,1.39063c1.269,0.089 2.59619,-0.61286 3.24219,-1.75586c0.01821,-0.03019 0.0297,-0.06305 0.04688,-0.09375c0.94524,-0.06951 1.89968,-0.60268 2.45117,-1.46484c0.711,-1.055 0.76856,-2.55259 0.10156,-3.68359c-0.0169,-0.03056 -0.0388,-0.05795 -0.05664,-0.08789c0.4117,-0.85314 0.42521,-1.94535 -0.04492,-2.85352c-0.558,-1.144 -1.82567,-1.94169 -3.13867,-1.92969c-0.03533,-0.00067 -0.07021,0.00538 -0.10547,0.00586c-0.53283,-0.78371 -1.47234,-1.34407 -2.49414,-1.39062zM8,2.62695c0.48992,-0.04599 0.99835,0.07002 1.4707,0.31055c-0.87574,0.29102 -1.63398,0.9177 -2.03516,1.73633c-0.43676,0.82418 -0.45769,1.8092 -0.14453,2.62109c-0.03936,0.03988 -0.07529,0.083 -0.10742,0.12891c-0.54956,-0.30153 -0.97637,-0.73491 -1.21289,-1.25195c-0.351,-0.741 -0.31187,-1.61783 0.07813,-2.29883c0.381,-0.698 1.12417,-1.16109 1.95117,-1.24609zM4.35352,4.19531c-0.18567,0.90385 -0.02433,1.87452 0.48438,2.63086c0.4949,0.79024 1.33743,1.29886 2.19727,1.43359c0.0143,0.0549 0.03325,0.10847 0.05664,0.16016c-0.5351,0.3245 -1.1255,0.4774 -1.69141,0.42383c-0.818,-0.067 -1.55422,-0.5388 -1.94922,-1.2168c-0.414,-0.679 -0.44452,-1.55545 -0.10352,-2.31445c0.20469,-0.44772 0.56106,-0.82808 1.00586,-1.11719zM10.59766,4.24609c0.795,-0.019 1.56964,0.39141 2.05664,1.06641c0.28534,0.40173 0.43727,0.90278 0.46484,1.43359c-0.69018,-0.61388 -1.61144,-0.96076 -2.52149,-0.89844c-0.93201,0.03412 -1.79525,0.50985 -2.3418,1.1875c-0.05378,-0.01431 -0.10866,-0.02411 -0.16406,-0.0293c-0.01405,-0.62669 0.14648,-1.21551 0.47656,-1.67969c0.466,-0.674 1.2443,-1.07708 2.0293,-1.08008zM10.59961,7.15625c0.818,0.067 1.55422,0.5388 1.94922,1.2168c0.414,0.679 0.44647,1.55545 0.10547,2.31445c-0.20536,0.44731 -0.56265,0.82807 -1.00781,1.11719c0.18575,-0.90361 0.02421,-1.8747 -0.48437,-2.63086c-0.4949,-0.79024 -1.33743,-1.29886 -2.19727,-1.43359c-0.0143,-0.0549 -0.03325,-0.10847 -0.05664,-0.16016c0.5351,-0.3245 1.1255,-0.4774 1.69141,-0.42383zM8.81641,8.57617c0.54962,0.30153 0.97764,0.73491 1.21484,1.25195c0.351,0.741 0.30892,1.61783 -0.08008,2.29883c-0.381,0.698 -1.12317,1.16209 -1.95117,1.24609c-0.48992,0.04598 -0.99814,-0.07002 -1.4707,-0.31055c0.87574,-0.29102 1.63398,-0.9177 2.03516,-1.73633c0.43676,-0.82418 0.45769,-1.8092 0.14453,-2.62109c0.03936,-0.03988 0.07529,-0.083 0.10742,-0.12891zM7.74414,8.96484c0.05378,0.01431 0.10866,0.02411 0.16406,0.0293c0.01382,0.62695 -0.14717,1.21619 -0.47656,1.67969c-0.467,0.675 -1.2453,1.07708 -2.0293,1.08008c-0.795,0.019 -1.56964,-0.39141 -2.05664,-1.06641c-0.28534,-0.40173 -0.43727,-0.90278 -0.46484,-1.43359c0.6902,0.6138 1.61089,0.96004 2.52148,0.89844c0.93201,-0.03412 1.79525,-0.50986 2.3418,-1.1875z"></path></g></g></svg>
